HIERARCHY
ROOT Hips
{
 OFFSET 0.000000 0.000000 0.000000
 CHANNELS 6 Xposition Yposition Zposition Yrotation Xrotation Zrotation
 JOINT Chest
 {
  OFFSET 0.000000 9.876139 0.000104
  CHANNELS 3 Yrotation Xrotation Zrotation
  JOINT Chest2
  {
   OFFSET 0.000000 10.876137 -0.000189
   CHANNELS 3 Yrotation Xrotation Zrotation
   JOINT Chest3
   {
    OFFSET 0.000000 9.827065 0.000000
    CHANNELS 3 Yrotation Xrotation Zrotation
    JOINT Chest4
    {
     OFFSET 0.000000 9.827065 0.000000
     CHANNELS 3 Yrotation Xrotation Zrotation
     JOINT Neck
     {
      OFFSET 0.000000 13.837564 0.000000
      CHANNELS 3 Yrotation Xrotation Zrotation
      JOINT Head
      {
       OFFSET 0.000000 9.147059 -0.000448
       CHANNELS 3 Yrotation Xrotation Zrotation
       End Site
       {
        OFFSET 0.000000 17.513050 -0.000234
       }
      }
     }
     JOINT RightCollar
     {
      OFFSET -3.007721 7.720841 0.000000
      CHANNELS 3 Yrotation Xrotation Zrotation
      JOINT RightShoulder
      {
       OFFSET -14.032560 0.000000 0.000000
       CHANNELS 3 Yrotation Xrotation Zrotation
       JOINT RightElbow
       {
        OFFSET -30.066962 0.000000 0.000000
        CHANNELS 3 Yrotation Xrotation Zrotation
        JOINT RightWrist
        {
         OFFSET -24.575761 0.000000 0.000000
         CHANNELS 3 Yrotation Xrotation Zrotation
         JOINT Prop1
         {
          OFFSET -3.508170 -1.002334 -2.004669
          CHANNELS 3 Yrotation Xrotation Zrotation
          End Site
          {
           OFFSET -75.170729 -33.091210 23.052389
          }
         }
         End Site
         {
          OFFSET -18.342718 0.000000 0.000000
         }
        }
       }
      }
     }
     JOINT LeftCollar
     {
      OFFSET 3.007721 7.720841 0.000000
      CHANNELS 3 Yrotation Xrotation Zrotation
      JOINT LeftShoulder
      {
       OFFSET 14.032560 0.000000 0.000000
       CHANNELS 3 Yrotation Xrotation Zrotation
       JOINT LeftElbow
       {
        OFFSET 30.066962 0.000000 0.000000
        CHANNELS 3 Yrotation Xrotation Zrotation
        JOINT LeftWrist
        {
         OFFSET 24.575761 0.000000 0.000000
         CHANNELS 3 Yrotation Xrotation Zrotation
         End Site
         {
          OFFSET 18.342718 0.000000 0.000000
         }
        }
       }
      }
     }
    }
   }
  }
 }
 JOINT RightHip
 {
  OFFSET -8.019680 -0.000509 -0.000052
  CHANNELS 3 Yrotation Xrotation Zrotation
  JOINT RightKnee
  {
   OFFSET 0.000000 -41.754945 0.000049
   CHANNELS 3 Yrotation Xrotation Zrotation
   JOINT RightAnkle
   {
    OFFSET 0.000000 -40.737371 0.000083
    CHANNELS 3 Yrotation Xrotation Zrotation
    JOINT RightToe
    {
     OFFSET 0.000000 -6.498123 14.692914
     CHANNELS 3 Yrotation Xrotation Zrotation
     End Site
     {
      OFFSET 0.000000 -1.503208 6.410318
     }
    }
   }
  }
 }
 JOINT LeftHip
 {
  OFFSET 8.019680 -0.000509 -0.000052
  CHANNELS 3 Yrotation Xrotation Zrotation
  JOINT LeftKnee
  {
   OFFSET 0.000000 -41.754945 0.000049
   CHANNELS 3 Yrotation Xrotation Zrotation
   JOINT LeftAnkle
   {
    OFFSET 0.000000 -40.737371 0.000083
    CHANNELS 3 Yrotation Xrotation Zrotation
    JOINT LeftToe
    {
     OFFSET 0.000000 -6.498123 14.692914
     CHANNELS 3 Yrotation Xrotation Zrotation
     End Site
     {
      OFFSET 0.000000 -1.503208 6.410318
     }
    }
   }
  }
 }
}
MOTION
Frames: 10
Frame Time: 0.016667
-16.357692 91.218126 -26.260909 178.758815 -12.862696 -0.475861 0.873755 8.947402 0.886899 0.348664 3.986151 0.341591 0.348664 3.986151 0.341591 0.259161 2.989811 0.253813 -4.667634 15.912762 0.137097 -8.743017 -6.486970 1.953041 8.365469 1.517824 2.651998 -13.959565 -39.342648 64.825889 53.680080 6.141110 4.659879 -4.723951 2.499628 -10.553985 -28.939697 -5.899493 -77.160663 10.761927 -4.326011 -14.046703 10.430141 4.085900 -70.266489 -2.266820 4.734719 1.764398 2.534955 -5.332296 -2.264832 -9.813925 16.521240 -7.984352 3.346854 10.630423 11.669821 -9.624009 -3.354257 -2.054492 0.165886 -12.037732 -0.784438 17.100697 15.773072 8.567884 -44.553088 3.008051 3.175489 -0.047009 -8.304041 -5.256643 0.006821 0.036927 -0.097336
-16.316762 91.198553 -26.330284 178.579551 -12.586796 -0.549447 0.728398 8.878005 0.876460 0.292446 3.950086 0.332182 0.292446 3.950086 0.332182 0.217098 2.962725 0.247145 -4.595292 15.894749 0.080396 -8.588702 -6.528913 1.822790 7.845652 1.060357 3.034407 -17.182591 -38.222217 65.983633 59.636407 8.290982 5.898253 -4.653580 1.912950 -10.710154 -28.477733 -6.886343 -77.318286 10.739723 -4.637610 -14.017131 10.185846 4.267522 -70.147108 -3.597701 4.876071 1.243207 2.316531 -5.308973 -1.916686 -9.713418 16.282911 -7.811610 3.382328 10.677581 11.666889 -9.643091 -3.459484 -2.122005 0.186285 -12.006518 -0.736452 17.150938 15.594295 8.520895 -44.504827 3.041070 3.295572 0.010053 -8.358186 -5.254844 0.011784 0.024113 -0.094286
-16.235688 91.184270 -26.405653 178.258887 -12.367181 -0.612362 0.602998 8.831407 0.871421 0.245712 3.923239 0.316665 0.245712 3.923239 0.316665 0.182176 2.942558 0.235826 -4.490441 15.925690 -0.002981 -8.361633 -6.483599 1.627756 7.282782 0.350680 3.466297 -20.784855 -37.242815 67.463183 65.485285 11.256384 7.399751 -4.603717 0.726245 -10.586799 -27.858842 -8.070205 -77.645022 10.666504 -4.744077 -13.993497 10.220426 4.241778 -69.937062 -5.101343 5.436546 0.640271 2.060501 -5.307233 -1.429211 -9.427090 16.106486 -7.603360 3.367117 10.724337 11.657174 -9.566945 -3.573899 -2.231850 0.234596 -11.959759 -0.684668 17.170721 15.488169 8.503959 -44.398181 3.035925 3.392156 0.159595 -8.420386 -5.300067 0.018315 0.029525 -0.061044
-16.148956 91.172974 -26.489250 177.794689 -12.285260 -0.587936 0.519990 8.817910 0.791427 0.218856 3.912274 0.291028 0.218856 3.912274 0.291028 0.162213 2.934311 0.216783 -4.373392 16.015486 -0.103003 -8.103186 -6.330411 1.393658 6.658780 -0.136454 3.997122 -24.507385 -36.702070 68.846528 71.373947 13.928814 9.198147 -4.640230 -0.762187 -9.944513 -27.045700 -9.404099 -78.053707 10.614163 -4.810586 -13.887769 10.165894 4.343589 -69.688442 -6.745007 6.131188 -0.003354 1.784907 -5.337026 -0.867697 -8.979874 16.052486 -7.446286 3.307226 10.766168 11.633249 -9.555864 -3.656289 -2.255613 0.186278 -11.937321 -0.688152 17.206407 15.541892 8.471245 -44.237286 3.004474 3.468546 0.352350 -8.454954 -5.371137 0.020255 0.012264 -0.018820
-16.029100 91.173512 -26.588102 177.221415 -12.547672 -0.550383 0.404396 8.925059 0.725854 0.175901 3.957563 0.266215 0.175901 3.957563 0.266215 0.130147 2.968250 0.198441 -4.207141 16.154026 -0.255842 -7.732585 -6.091901 1.041276 6.039905 -0.329748 4.481638 -27.294712 -36.165003 69.100635 76.878719 15.006577 10.925181 -4.709898 -2.072718 -9.124007 -25.652377 -10.991987 -77.992990 10.583970 -5.014254 -13.826323 10.008905 4.670351 -69.432773 -8.369055 6.818886 -0.520794 1.501750 -5.383639 -0.298762 -8.455797 16.338512 -7.334998 3.318810 10.803777 11.615770 -9.533917 -3.744599 -2.323717 0.179631 -11.913450 -0.672581 17.335296 15.934990 8.529640 -44.045409 2.986155 3.560073 0.559571 -8.504187 -5.441623 0.012300 -0.004810 0.011702
-15.910176 91.185576 -26.697303 176.601205 -13.017278 -0.476761 0.198915 9.111026 0.648523 0.086002 4.045767 0.241992 0.086002 4.045767 0.241992 0.062870 3.034360 0.180849 -3.973707 16.315772 -0.477061 -7.212908 -5.815640 0.537768 5.416368 -0.974914 4.922150 -28.568098 -35.207539 68.348012 81.634469 15.738892 12.168357 -4.258366 -3.886822 -7.836967 -24.045444 -12.695632 -77.766386 10.621742 -5.287570 -13.774152 9.884630 5.028933 -69.143477 -9.876000 7.648707 -1.013636 1.096918 -5.478814 0.216134 -7.930024 16.809600 -7.285810 3.319520 10.857781 11.610408 -9.488343 -3.804761 -2.402573 0.162626 -11.917004 -0.657004 17.501443 16.544688 8.598765 -43.806614 2.989217 3.671866 0.742556 -8.556862 -5.497078 0.001118 -0.034662 0.025517
-15.791709 91.189281 -26.788356 176.073707 -13.454510 -0.406799 -0.158469 9.357436 0.587541 -0.080854 4.159961 0.221172 -0.080854 4.159961 0.221172 -0.062122 3.119942 0.166357 -3.669415 16.429218 -0.772330 -6.538470 -5.632053 -0.124305 4.879459 -2.581838 5.398035 -28.658091 -33.705487 66.917406 85.783743 15.475257 13.188149 -3.465244 -5.692200 -6.390868 -22.263203 -13.565423 -77.531821 10.699213 -5.447396 -13.779712 10.235676 4.866708 -68.837970 -11.201016 8.915093 -1.659059 0.536121 -5.586231 0.718858 -7.572749 17.234400 -7.288029 3.320112 10.920859 11.630786 -9.350614 -3.857940 -2.513271 0.165628 -11.919389 -0.635673 17.606370 17.102945 8.652001 -43.563836 3.011366 3.754879 0.884830 -8.646244 -5.519532 -0.006556 -0.035321 0.022417
-15.696404 91.173832 -26.861634 175.613897 -13.752501 -0.351373 -0.662741 9.579055 0.562920 -0.312262 4.254032 0.218222 -0.312262 4.254032 0.218222 -0.235610 3.190414 0.165768 -3.301396 16.520673 -1.159387 -5.715095 -5.489204 -0.977015 4.600095 -4.486573 5.899539 -28.741271 -32.574966 64.847491 88.825433 12.562277 15.212027 -2.559654 -5.772696 -6.171748 -20.307368 -13.805338 -76.911720 10.830615 -5.507027 -13.874770 10.609808 4.507177 -68.906591 -12.241145 10.058642 -2.060727 -0.091589 -5.715227 1.236332 -7.375924 17.514241 -7.320267 3.312943 10.983705 11.661939 -9.132706 -3.924798 -2.602713 0.168710 -11.894484 -0.639261 17.744592 17.488721 8.697128 -43.346571 3.055105 3.806873 0.960978 -8.780175 -5.515893 -0.004816 -0.000937 0.009826
-15.597615 91.143589 -26.935243 174.937876 -13.907938 -0.330887 -1.134903 9.746000 0.575698 -0.514812 4.312038 0.237670 -0.514812 4.312038 0.237670 -0.387607 3.233832 0.181807 -2.896598 16.619503 -1.595896 -4.807494 -5.326316 -1.933340 4.270207 -5.627851 6.111563 -29.111633 -32.521292 63.061977 91.312483 9.059518 18.071795 -1.367358 -5.932839 -6.813052 -18.959635 -13.811923 -76.928352 10.875564 -5.516629 -13.969783 10.420137 4.490831 -69.065875 -13.210560 10.306027 -2.366767 -0.583220 -5.859945 1.733910 -7.109346 17.649543 -7.300521 3.409763 11.031450 11.687032 -8.835306 -4.007363 -2.674900 0.169643 -11.833223 -0.666865 18.251325 17.695309 8.818582 -43.185966 3.129320 3.865477 0.975383 -8.954601 -5.492385 -0.004160 0.043784 -0.011809
-15.485932 91.108971 -27.003612 174.107317 -14.004183 -0.343139 -1.599829 9.876855 0.646108 -0.709330 4.346830 0.284640 -0.709330 4.346830 0.284640 -0.533770 3.259798 0.218432 -2.446512 16.745836 -2.083387 -3.800133 -5.102992 -2.998857 4.005445 -5.606998 5.875007 -29.537192 -33.567491 62.188752 93.677252 5.529843 20.497899 -0.513821 -6.098883 -7.934808 -18.368017 -13.627807 -77.061988 10.699767 -5.163998 -14.125006 10.174615 4.173524 -69.368201 -13.930753 10.242688 -2.560015 -0.833783 -5.960550 2.117962 -6.776108 17.686421 -7.225888 3.551938 11.121147 11.706575 -8.514171 -4.123533 -2.741922 0.174495 -11.736893 -0.699930 18.946622 17.818892 9.000490 -43.065838 3.215662 3.921449 1.030829 -9.152713 -5.456634 -0.015282 0.103304 -0.041865
